<?xml version="1.0" encoding="UTF-8" standalone="no"?>
<svg width="119px" height="119px" viewBox="0 0 119 119" version="1.1" xmlns="http://www.w3.org/2000/svg" xmlns:xlink="http://www.w3.org/1999/xlink">
    <!-- Generator: Sketch 40.3 (33839) - http://www.bohemiancoding.com/sketch -->
    <title>Group</title>
    <desc>Created with Sketch.</desc>
    <defs></defs>
    <g id="Page-1" stroke="none" stroke-width="1" fill="none" fill-rule="evenodd">
        <g id="Group">
            <path d="M59.2999592,0.379469388 C26.5901633,0.379469388 0.0750612245,26.8957959 0.0750612245,59.6043673 C0.0750612245,92.3141633 26.5901633,118.83049 59.2999592,118.83049 C92.0097551,118.83049 118.524857,92.3141633 118.524857,59.6043673 C118.524857,26.8957959 92.0097551,0.379469388 59.2999592,0.379469388 M59.2999592,4.81212245 C89.5130204,4.81212245 114.093429,29.3913061 114.093429,59.6043673 C114.093429,89.8186531 89.5130204,114.397837 59.2999592,114.397837 C29.086898,114.397837 4.5064898,89.8186531 4.5064898,59.6043673 C4.5064898,29.3913061 29.086898,4.81212245 59.2999592,4.81212245" id="Fill-203" fill="#062338"></path>
            <path d="M83.9779592,37.0496327 C83.1073469,36.3418776 81.835102,36.4863673 81.1371429,37.365551 L48.8791837,77.9512653 L38.3179592,64.663102 C37.62,63.7875918 36.3477551,63.6443265 35.4771429,64.3520816 C34.6114286,65.0561633 34.4669388,66.3418776 35.1710204,67.2222857 L46.8563265,81.9259592 C47.2102041,82.5614694 47.875102,82.9398367 48.5877551,82.9398367 C48.7016327,82.9398367 48.8118367,82.9067755 48.9318367,82.8871837 C48.9942857,82.8920816 49.0604082,82.9300408 49.1277551,82.9300408 C49.7644898,82.9300408 50.3902041,82.6141224 50.7832653,82.0888163 L84.2889796,39.9198367 C84.9869388,39.0394286 84.8485714,37.7586122 83.9779592,37.0496327 L83.9779592,37.0496327 Z" id="Stroke-549" stroke="#062438" fill="#072338"></path>
        </g>
    </g>
</svg>