<?xml version="1.0" encoding="UTF-8" standalone="no"?>
<svg width="81px" height="111px" viewBox="0 0 81 111" version="1.1" xmlns="http://www.w3.org/2000/svg" xmlns:xlink="http://www.w3.org/1999/xlink">
    <!-- Generator: Sketch 40.3 (33839) - http://www.bohemiancoding.com/sketch -->
    <title>Group 4</title>
    <desc>Created with Sketch.</desc>
    <defs>
        <path d="M10.275084,10.2133651 C16.8681375,3.62828983 25.6245791,-1.42108547e-14 34.9442055,-1.42108547e-14 C44.2530014,-1.42108547e-14 53.0202734,3.62828983 59.6024964,10.2133651 C71.8896738,22.4981046 73.4086483,45.6216831 62.7974874,59.7638904 L34.9442055,100 L7.04218632,59.7016138 C-3.51752981,45.6216831 -2.00938573,22.4981046 10.275084,10.2133651 L10.275084,10.2133651 Z" id="path-1"></path>
        <filter x="-50%" y="-50%" width="200%" height="200%" filterUnits="objectBoundingBox" id="filter-2">
            <feMorphology radius="0.5" operator="dilate" in="SourceAlpha" result="shadowSpreadOuter1"></feMorphology>
            <feOffset dx="0" dy="3" in="shadowSpreadOuter1" result="shadowOffsetOuter1"></feOffset>
            <feGaussianBlur stdDeviation="2.5" in="shadowOffsetOuter1" result="shadowBlurOuter1"></feGaussianBlur>
            <feComposite in="shadowBlurOuter1" in2="SourceAlpha" operator="out" result="shadowBlurOuter1"></feComposite>
            <feColorMatrix values="0 0 0 0 0.51372549   0 0 0 0 0.568627451   0 0 0 0 0.607843137  0 0 0 1 0" type="matrix" in="shadowBlurOuter1"></feColorMatrix>
        </filter>
    </defs>
    <g id="Page-1" stroke="none" stroke-width="1" fill="none" fill-rule="evenodd">
        <g id="Group-4" transform="translate(6.000000, 3.000000)">
            <g id="Stroke-567-Copy-2">
                <use fill="black" fill-opacity="1" filter="url(#filter-2)" xlink:href="#path-1"></use>
                <use stroke="#062438" stroke-width="1" fill="#072438" fill-rule="evenodd" xlink:href="#path-1"></use>
            </g>
            <g id="Group" transform="translate(14.877663, 17.000000)" fill="#AAC341">
                <path d="M33.9746126,31.7079462 C33.05098,31.7079462 32.3025756,30.9595418 32.3025756,30.0359092 L32.3025756,11.7958034 C32.3025756,10.8721708 33.05098,10.1237664 33.9746126,10.1237664 C34.8982452,10.1237664 35.6466496,10.8721708 35.6466496,11.7958034 L35.6466496,30.0359092 C35.6466496,30.9595418 34.8982452,31.7079462 33.9746126,31.7079462" id="Fill-624"></path>
                <path d="M33.9768234,0.577597892 C31.8929184,0.577597892 29.9506697,1.69774804 28.9099454,3.50079675 C27.2976825,6.29298389 28.2581621,9.87533543 31.0495304,11.4875983 C31.936316,12.0001817 32.9467438,12.2712121 33.9686352,12.2712121 C36.0525403,12.2712121 37.9939701,11.151062 39.0355132,9.34801329 C39.8166706,7.99531734 40.0238328,6.41990149 39.620153,4.91162914 C39.2156543,3.40335679 38.2486241,2.14155022 36.8951093,1.3612117 C36.007505,0.848628374 34.9987148,0.577597892 33.9768234,0.577597892 M33.9768234,3.37224151 C34.5082397,3.37224151 35.0339242,3.51389792 35.4981969,3.78165311 C36.2048414,4.18942707 36.7092365,4.84694211 36.9204929,5.63546886 C37.1309304,6.42235796 37.0228458,7.24445646 36.6150718,7.95028207 C36.0713732,8.89192876 35.0576701,9.47656853 33.9686352,9.47656853 C33.4372189,9.47656853 32.9107156,9.33491212 32.4472617,9.06715693 C30.9897564,8.22540667 30.4886366,6.35521446 31.329568,4.89852797 C31.8732666,3.95688128 32.8869697,3.37224151 33.9768234,3.37224151" id="Fill-625"></path>
                <path d="M30.6805687,33.0693217 C30.253143,33.0693217 29.8248985,32.9063758 29.498188,32.5796654 L9.24377709,12.3309862 C8.59117499,11.6783841 8.59035617,10.6196457 9.24377709,9.96622481 C9.89637919,9.31362271 10.9551176,9.31362271 11.6085385,9.96622481 L31.8629494,30.214904 C32.5155515,30.867506 32.5155515,31.9262445 31.8629494,32.5796654 C31.536239,32.9063758 31.1088132,33.0693217 30.6805687,33.0693217" id="Fill-626"></path>
                <path d="M2.6918813,3.41105373 C1.21799952,4.8849355 0.637453868,7.04990407 1.17542072,9.06093387 C2.01062039,12.1749185 5.22286384,14.0295531 8.33602968,13.1951723 C9.32598694,12.9306924 10.2316054,12.4082831 10.9546263,11.6852623 C12.4285081,10.2113805 13.0090537,8.04723074 12.4702681,6.03538211 C12.0665882,4.52710976 11.0987392,3.26612202 9.74686207,2.4857835 C8.39416613,1.70462616 6.81793145,1.49664506 5.3096591,1.90114373 C4.31970184,2.16644245 3.41408337,2.68885165 2.6918813,3.41105373 M4.66852053,5.38769295 C5.04354156,5.0118531 5.51600255,4.73918497 6.03349882,4.60080385 C6.82120674,4.38954746 7.64330525,4.49763212 8.34913085,4.90622491 C9.05577528,5.31399886 9.56017038,5.9715139 9.77060794,6.75922183 C10.0522831,7.80895318 9.74849972,8.93892921 8.9788059,9.70944185 C8.60296605,10.0852817 8.13050506,10.357131 7.61300879,10.4955121 C5.98764472,10.9311261 4.31069479,9.96327705 3.87508084,8.33791298 C3.59422448,7.28818162 3.89800789,6.15738677 4.66852053,5.38769295" id="Fill-627"></path>
                <path d="M29.0844366,36.5303236 L10.8443308,36.5303236 C9.92151706,36.5303236 9.17229383,35.7819192 9.17229383,34.8582866 C9.17229383,33.934654 9.92151706,33.1862496 10.8443308,33.1862496 L29.0844366,33.1862496 C30.0080692,33.1862496 30.7564736,33.934654 30.7564736,34.8582866 C30.7564736,35.7819192 30.0080692,36.5303236 29.0844366,36.5303236" id="Fill-628"></path>
                <path d="M0.0194879924,34.8560758 C0.0194879924,36.9399809 1.13963814,38.8822295 2.94268685,39.9229538 C5.73487399,41.5352167 9.31722553,40.5747371 10.9294884,37.7833688 C11.4420718,36.8965832 11.7131022,35.8861554 11.7131022,34.864264 C11.7131022,32.7795401 10.5929521,30.8389291 8.78990339,29.797386 C7.43720745,29.0162287 5.86179159,28.8090664 4.35351924,29.2127462 C2.84524689,29.6172449 1.58344032,30.5842751 0.803101804,31.9377899 C0.290518475,32.8253942 0.0194879924,33.8341844 0.0194879924,34.8560758 M2.81413161,34.8560758 C2.81413161,34.3246595 2.95578802,33.798975 3.22354321,33.3347023 C3.63131717,32.6280578 4.28883221,32.1236627 5.07735896,31.9124063 C5.86424806,31.7019688 6.68634656,31.8100534 7.39217217,32.2178274 C8.33381886,32.761526 8.91845863,33.7752291 8.91845863,34.864264 C8.91845863,35.3956803 8.77680222,35.9221836 8.50904703,36.3856375 C7.66729677,37.8431429 5.79710456,38.3442627 4.34041807,37.5033312 C3.39877138,36.9596326 2.81413161,35.9459295 2.81413161,34.8560758" id="Fill-629"></path>
                <path d="M33.9768234,29.0114795 C31.8929184,29.0114795 29.9506697,30.1316296 28.9099454,31.9346783 C27.2976825,34.7268655 28.2581621,38.309217 31.0495304,39.9214799 C31.936316,40.4340633 32.9467438,40.7050937 33.9686352,40.7050937 C36.0525403,40.7050937 37.9939701,39.5849436 39.0355132,37.7818949 C39.8166706,36.4291989 40.0238328,34.8537831 39.620153,33.3455107 C39.2156543,31.8372384 38.2486241,30.5754318 36.8951093,29.7950933 C36.007505,29.28251 34.9987148,29.0114795 33.9768234,29.0114795 M33.9768234,31.8061231 C34.5082397,31.8061231 35.0339242,31.9477795 35.4981969,32.2155347 C36.2048414,32.6233087 36.7092365,33.2808237 36.9204929,34.0693504 C37.1309304,34.8562395 37.0228458,35.6783381 36.6150718,36.3841637 C36.0713732,37.3258103 35.0576701,37.9104501 33.9686352,37.9104501 C33.4372189,37.9104501 32.9107156,37.7687937 32.4472617,37.5010385 C30.9897564,36.6592883 30.4886366,34.789096 31.329568,33.3324096 C31.8732666,32.3907629 32.8869697,31.8061231 33.9768234,31.8061231" id="Fill-630"></path>
            </g>
        </g>
    </g>
</svg>