<?xml version="1.0" encoding="UTF-8" standalone="no"?>
<svg width="22px" height="22px" viewBox="0 0 22 22" version="1.1" xmlns="http://www.w3.org/2000/svg" xmlns:xlink="http://www.w3.org/1999/xlink">
    <!-- Generator: Sketch 40.1 (33804) - http://www.bohemiancoding.com/sketch -->
    <title>Group</title>
    <desc>Created with Sketch.</desc>
    <defs></defs>
    <g id="Page-1" stroke="none" stroke-width="1" fill="none" fill-rule="evenodd">
        <g id="ic-header-call" transform="translate(1.000000, 1.000000)" stroke-width="2" stroke="#FFFFFF">
            <g id="Styleguide">
                <g id="Style_5">
                    <g id="ic_header_call">
                        <g id="Group-33">
                            <g id="ic_header_call">
                                <g id="Group-10">
                                    <g id="Group">
                                        <path d="M19.4422918,15.1373259 C20.1882468,15.882451 20.1882468,16.7545296 19.4422918,17.5029738 C18.9436056,18.0024898 18.3860064,18.4986868 17.9478927,18.997373 C17.2641698,19.7433279 16.3920912,20.0544882 15.397208,19.9922562 C14.0297623,19.9308539 12.7203998,19.4321676 11.4135265,18.8098471 C8.61308392,17.4415715 6.18603364,15.5098884 4.13403524,13.1467298 C2.63963608,11.3420001 1.39499492,9.47503831 0.588467442,7.23468422 C0.215075092,6.17839875 -0.0960851996,5.05656218 0.0275491562,3.93555537 C0.0889514537,3.25183249 0.338709448,2.6295119 0.899627733,2.12999592 C1.45971626,1.56907763 2.02063454,1.00815934 2.51683149,0.51279216 C3.26195667,-0.17093072 4.13403524,-0.17093072 4.81775812,0.51279216 C5.25255277,0.946757047 5.6898367,1.38487074 6.12380159,1.81883562 C6.55859623,2.25280051 6.99588016,2.6909142 7.43067481,3.12487909 C8.17579999,3.87083403 8.17579999,4.74208284 7.43067481,5.49135682 C6.86975653,6.05227511 6.37355958,6.61236363 5.81264129,7.10856058 C5.6898367,7.23136517 5.6898367,7.35831857 5.751239,7.54252546 C6.12380159,8.41460404 6.62331757,9.16055898 7.18423586,9.9090032 C8.36747473,11.3420001 9.67351819,12.6480435 11.2907219,13.6429267 C11.6018822,13.8312824 12.0358471,14.0154893 12.3470074,14.203845 C12.5353631,14.2652473 12.6581677,14.2652473 12.7818021,14.1424427 C13.3427203,13.5815244 13.9028089,13.0206061 14.3990058,12.5244092 C15.1449608,11.779284 16.0162096,11.779284 16.7007622,12.5244092 C17.7022835,13.3931687 18.5702132,14.2652473 19.4422918,15.1373259 L19.4422918,15.1373259 L19.4422918,15.1373259 Z" id="Page-1"></path>
                                    </g>
                                </g>
                            </g>
                        </g>
                    </g>
                </g>
            </g>
        </g>
    </g>
</svg>