<?xml version="1.0" encoding="UTF-8" standalone="no"?>
<svg width="81px" height="111px" viewBox="0 0 81 111" version="1.1" xmlns="http://www.w3.org/2000/svg" xmlns:xlink="http://www.w3.org/1999/xlink">
    <!-- Generator: Sketch 40.3 (33839) - http://www.bohemiancoding.com/sketch -->
    <title>Group 3</title>
    <desc>Created with Sketch.</desc>
    <defs>
        <path d="M10.275084,10.2133651 C16.8681375,3.62828983 25.6245791,-1.42108547e-14 34.9442055,-1.42108547e-14 C44.2530014,-1.42108547e-14 53.0202734,3.62828983 59.6024964,10.2133651 C71.8896738,22.4981046 73.4086483,45.6216831 62.7974874,59.7638904 L34.9442055,100 L7.04218632,59.7016138 C-3.51752981,45.6216831 -2.00938573,22.4981046 10.275084,10.2133651 L10.275084,10.2133651 Z" id="path-1"></path>
        <filter x="-50%" y="-50%" width="200%" height="200%" filterUnits="objectBoundingBox" id="filter-2">
            <feMorphology radius="0.5" operator="dilate" in="SourceAlpha" result="shadowSpreadOuter1"></feMorphology>
            <feOffset dx="0" dy="3" in="shadowSpreadOuter1" result="shadowOffsetOuter1"></feOffset>
            <feGaussianBlur stdDeviation="2.5" in="shadowOffsetOuter1" result="shadowBlurOuter1"></feGaussianBlur>
            <feComposite in="shadowBlurOuter1" in2="SourceAlpha" operator="out" result="shadowBlurOuter1"></feComposite>
            <feColorMatrix values="0 0 0 0 0.51372549   0 0 0 0 0.568627451   0 0 0 0 0.607843137  0 0 0 1 0" type="matrix" in="shadowBlurOuter1"></feColorMatrix>
        </filter>
    </defs>
    <g id="Page-1" stroke="none" stroke-width="1" fill="none" fill-rule="evenodd">
        <g id="Group-3" transform="translate(6.000000, 3.000000)">
            <g id="Stroke-567-Copy">
                <use fill="black" fill-opacity="1" filter="url(#filter-2)" xlink:href="#path-1"></use>
                <use stroke="#062438" stroke-width="1" fill="#072438" fill-rule="evenodd" xlink:href="#path-1"></use>
            </g>
            <path d="M32.3190089,65.9145075 C32.0120089,65.9145075 31.7040089,65.8235075 31.4340089,65.6335075 C30.7440089,65.1435075 30.5800089,64.1845075 31.0690089,63.4945075 L46.6270089,41.5395075 C39.5470089,41.5605075 22.2850089,41.6105075 22.2850089,41.6105075 L22.2800089,41.6105075 C21.7100089,41.6105075 21.1870089,41.2945075 20.9220089,40.7885075 C20.6570089,40.2815075 20.6950089,39.6695075 21.0230089,39.2005075 L37.4240089,15.6575075 C37.9060089,14.9615075 38.8630089,14.7915075 39.5570089,15.2755075 C40.2520089,15.7595075 40.4230089,16.7145075 39.9390089,17.4095075 L25.2230089,38.5345075 C32.2310089,38.5155075 49.3280089,38.4655075 49.5980089,38.4655075 C50.1710089,38.4655075 50.6970089,38.7865075 50.9600089,39.2955075 C51.2220089,39.8045075 51.1800089,40.4185075 50.8490089,40.8855075 L33.5720089,65.2675075 C33.2730089,65.6895075 32.8000089,65.9145075 32.3190089,65.9145075 L32.3190089,65.9145075 Z" id="Fill-164" fill="#AAC341"></path>
        </g>
    </g>
</svg>