<?xml version="1.0" encoding="UTF-8" standalone="no"?>
<svg width="52px" height="52px" viewBox="0 0 52 52" version="1.1" xmlns="http://www.w3.org/2000/svg" xmlns:xlink="http://www.w3.org/1999/xlink">
    <!-- Generator: Sketch 40.1 (33804) - http://www.bohemiancoding.com/sketch -->
    <title>Group</title>
    <desc>Created with Sketch.</desc>
    <defs></defs>
    <g id="Page-1" stroke="none" stroke-width="1" fill="none" fill-rule="evenodd">
        <g id="Group" transform="translate(1.000000, 1.000000)">
            <g id="ic-header-call" stroke-width="2" stroke="#FFFFFF">
                <g id="Styleguide">
                    <g id="Style_5">
                        <g id="ic_header_call">
                            <g id="Group-33">
                                <g id="ic_header_call">
                                    <circle id="Oval-Copy-7" cx="25" cy="25" r="25"></circle>
                                </g>
                            </g>
                        </g>
                    </g>
                </g>
            </g>
            <path d="M31.494407,28.2919978 C30.6678156,32.9280337 26.8019498,36.4360045 22.15772,36.4360045 C16.9110149,36.4360045 12.65772,31.958852 12.65772,26.4360045 C12.65772,20.913157 16.9110149,16.4360045 22.15772,16.4360045 C27.1989,16.4360045 31.3229736,20.569267 31.6383364,25.7919978 L39.0169902,25.7919978 C39.5567378,25.7919978 39.9942897,26.2274646 39.9942897,26.7657217 L39.9942897,27.318274 C39.9942897,27.8560468 39.5597462,28.2919978 39.0169902,28.2919978 L31.494407,28.2919978 Z M22.2601987,34.2224614 C26.4964738,34.2224614 29.9306533,30.7015219 29.9306533,26.358223 C29.9306533,22.0149241 26.4964738,18.4939846 22.2601987,18.4939846 C18.0239237,18.4939846 14.5897442,22.0149241 14.5897442,26.358223 C14.5897442,30.7015219 18.0239237,34.2224614 22.2601987,34.2224614 Z M31.494407,28.2919978 C31.6016371,27.6905854 31.65772,27.0701891 31.65772,26.4360045 C31.65772,26.2196623 31.6511935,26.0049246 31.6383364,25.7919978 L31.1534073,25.7919978 C30.6106513,25.7919978 30.1761078,26.2279488 30.1761078,26.7657217 L30.1761078,27.318274 C30.1761078,27.8565311 30.6136597,28.2919978 31.1534073,28.2919978 L31.494407,28.2919978 Z" id="Combined-Shape" fill="#FFFFFF" transform="translate(26.326005, 26.436004) rotate(45.000000) translate(-26.326005, -26.436004) "></path>
        </g>
    </g>
</svg>