<?xml version="1.0" encoding="UTF-8" standalone="no"?>
<svg width="28px" height="28px" viewBox="0 0 28 28" version="1.1" xmlns="http://www.w3.org/2000/svg" xmlns:xlink="http://www.w3.org/1999/xlink">
    <!-- Generator: Sketch 40.3 (33839) - http://www.bohemiancoding.com/sketch -->
    <title>expand</title>
    <desc>Created with Sketch.</desc>
    <defs></defs>
    <g id="Page-1" stroke="none" stroke-width="1" fill="none" fill-rule="evenodd">
        <g id="expand" transform="translate(14.000000, 14.000000) rotate(270.000000) translate(-14.000000, -14.000000) translate(-0.000000, 0.000000)" fill="#FFFFFF">
            <g id="Symbols" transform="translate(-0.000000, 0.000000)">
                <g id="ic/expand/dark">
                    <g id="ic_down">
                        <path d="M14,1.04832 C21.14112,1.04832 26.95168,6.85888 26.95168,14 C26.95168,21.14112 21.14112,26.95168 14,26.95168 C6.85888,26.95168 1.04832,21.14112 1.04832,14 C1.04832,6.85888 6.85888,1.04832 14,1.04832 M14,0 C6.26752,0 0,6.26752 0,14 C0,21.73248 6.26752,28 14,28 C21.73248,28 28,21.73248 28,14 C28,6.26752 21.73248,0 14,0" id="Fill-59"></path>
                        <path d="M13.5994782,17.829714 C13.810403,18.0560847 14.1861328,18.0576645 14.400231,17.8290369 L19.8330795,12.033451 C19.9407633,11.9187986 20,11.7669069 20,11.6053102 C20,11.4437136 19.9407633,11.2920475 19.8335027,11.1778466 C19.6185582,10.9485419 19.2451556,10.9487676 19.0308458,11.1773952 L13.9999604,16.5441633 L8.96822869,11.1764924 C8.85779462,11.058906 8.71245322,11 8.56732339,11 C8.42177044,11 8.27642905,11.058906 8.16557186,11.1767181 C7.94470372,11.4123422 7.94470372,11.7969241 8.16620654,12.0336767 L13.5994782,17.829714 L13.5994782,17.829714 Z" id="Fill-61"></path>
                    </g>
                </g>
            </g>
        </g>
    </g>
</svg>