<?xml version="1.0" encoding="UTF-8" standalone="no"?>
<svg width="28px" height="28px" viewBox="0 0 28 28" version="1.1" xmlns="http://www.w3.org/2000/svg" xmlns:xlink="http://www.w3.org/1999/xlink">
    <!-- Generator: sketchtool 40.1 (33804) - http://www.bohemiancoding.com/sketch -->
    <title>B6AAB218-08DD-4BB3-B0B7-A1A8CADC3FE0</title>
    <desc>Created with sketchtool.</desc>
    <defs></defs>
    <g id="Symbols" stroke="none" stroke-width="1" fill="none" fill-rule="evenodd">
        <g id="Button/Cancel" fill="#FFFFFF">
            <g id="Group-2">
                <path d="M14,1.04832 C21.14112,1.04832 26.95168,6.85888 26.95168,14 C26.95168,21.14112 21.14112,26.95168 14,26.95168 C6.85888,26.95168 1.04832,21.14112 1.04832,14 C1.04832,6.85888 6.85888,1.04832 14,1.04832 L14,1.04832 Z M14,0 C6.26752,0 0,6.26752 0,14 C0,21.73248 6.26752,28 14,28 C21.73248,28 28,21.73248 28,14 C28,6.26752 21.73248,0 14,0 L14,0 Z" id="Fill-102"></path>
                <path d="M9.00270711,9.66527943 C8.98809527,9.80033428 9.03263491,9.94096353 9.13632603,10.0460004 L13.1035078,14.0129388 L9.1827709,17.9331159 C9.04756212,18.0684002 8.98737108,18.2507125 9.00219779,18.427825 C8.98919298,18.561833 9.03390239,18.7004571 9.13632603,18.8030792 C9.18647814,18.8532593 9.24494421,18.8896521 9.30779983,18.9121295 C9.54374498,19.0459967 9.86351037,19.016256 10.0625282,18.8171271 L13.9841031,14.8933634 L17.8877676,18.8030792 C17.9363858,18.8501596 17.9917127,18.8851034 18.0501548,18.9078048 C18.1483656,18.967878 18.2602875,19 18.3757208,19 C18.5404403,19 18.701399,18.9332727 18.8179812,18.8171271 C19.0601715,18.5732965 19.0601715,18.1769465 18.8174798,17.9328651 L14.880008,13.9969584 L18.8177305,10.057038 C18.9353156,9.93963814 19,9.78335581 19,9.61703929 C19,9.45072277 18.9353156,9.29444044 18.8177305,9.17704054 C18.5818082,8.94098649 18.1698842,8.94098649 17.9339618,9.17704054 L14,13.1159575 L10.0627789,9.1772914 C9.82735797,8.94098649 9.41718899,8.94148819 9.18302161,9.17678969 C9.04944721,9.30974831 8.98931451,9.48951699 9.00270711,9.66527943 Z" id="Combined-Shape"></path>
            </g>
        </g>
    </g>
</svg>