<?xml version="1.0" encoding="UTF-8" standalone="no"?>
<svg width="128px" height="38px" viewBox="0 0 128 38" version="1.1" xmlns="http://www.w3.org/2000/svg" xmlns:xlink="http://www.w3.org/1999/xlink">
    <!-- Generator: sketchtool 39.1 (31720) - http://www.bohemiancoding.com/sketch -->
    <title>A8047B94-C591-4301-A955-355CC7759ACB</title>
    <desc>Created with sketchtool.</desc>
    <defs>
        <polygon id="path-1" points="21.8890401 30.984054 21.8890401 0.513301587 0.0974754346 0.513301587 0.0974754346 30.984054 21.8890401 30.984054"></polygon>
    </defs>
    <g id="Styleguide" stroke="none" stroke-width="1" fill="none" fill-rule="evenodd">
        <g id="Style_5" transform="translate(-180.000000, -1088.000000)">
            <g id="ic_logo" transform="translate(180.000000, 1088.000000)">
                <path d="M72.8537566,10.5209333 C77.5056085,10.9316952 79.8028118,14.5899492 79.3553439,19.6843619 C78.8492215,25.4543302 75.1382615,29.0028063 70.3346334,29.0028063 C65.5273772,29.0028063 62.711353,25.7709968 62.9000151,20.4709016 C64.7001663,19.9015048 66.3570068,19.0088063 67.800393,17.8597587 C67.6794558,18.4249333 67.5887528,19.0516317 67.5276795,19.7428698 C67.1418896,24.1382032 68.3947997,25.8270921 70.6127891,25.8270921 C72.8307785,25.8270921 74.3799849,24.1382032 74.7657748,19.7428698 C75.141285,15.4627429 73.8986546,13.6580444 71.6806652,13.6580444 C71.6032653,13.6580444 71.5270748,13.6604571 71.451489,13.6646794 C72.0319879,12.6821079 72.5042479,11.6283619 72.8537566,10.5209333 M71.9594255,10.4823302 C72.1130159,10.4823302 72.2641875,10.4859492 72.4129403,10.491981 C70.5293424,14.1616952 67.1975208,16.9688698 63.1697052,18.1637587 C64.1172487,13.5736 67.430325,10.4823302 71.9594255,10.4823302" id="Fill-1" fill="#FFFFFF"></path>
                <path d="M86.8041119,13.2533746 C88.0249735,11.9155333 89.8251247,10.4823905 91.8308692,10.4823905 C92.101164,10.4823905 92.3684354,10.511946 92.6369161,10.5415016 C92.7288284,10.5523587 92.8110658,10.6530889 92.8026002,10.746581 L92.4651852,14.5894063 C92.4543008,14.7154698 92.3430385,14.8083587 92.2190779,14.7950889 C91.6772789,14.7371841 91.2231595,14.6792794 90.7623885,14.6792794 C88.8273923,14.6792794 87.5297354,15.9001048 86.4806047,16.940581 L85.4713832,28.4467397 C85.4617082,28.5571206 85.3558881,28.6530254 85.2464399,28.6530254 L81.04387,28.6530254 C80.9338171,28.6530254 80.8455329,28.5571206 80.8546032,28.4467397 L82.3820408,11.0385175 C82.3917158,10.9281365 82.4969312,10.8316286 82.6069841,10.8316286 L86.809554,10.8316286 C86.919607,10.8316286 87.0078912,10.9281365 86.9982162,11.0385175 L86.8041119,13.2533746 Z" id="Fill-3" fill="#FFFFFF"></path>
                <path d="M26.8787302,10.4825111 C21.5998186,10.4825111 18.3133485,14.2728603 17.8386697,19.6839397 C17.3331519,25.4502889 20.1836432,29.0029873 25.2249131,29.0029873 C29.2950567,29.0029873 31.418715,26.8387968 32.5845503,24.4779714 C32.638972,24.3669873 32.5924112,24.2421302 32.4811489,24.2041302 L29.0223432,23.0400032 C28.9134996,23.0032095 28.7865155,23.0683524 28.7460015,23.1823524 C28.3795616,24.2041302 27.2058655,25.6209873 25.4335299,25.6209873 C22.7269539,25.6209873 22.208133,23.0454317 22.3423734,20.9970508 L33.3404082,20.9970508 C33.4498564,20.9970508 33.5550718,20.9005429 33.5653515,20.7907651 L33.7026153,19.2182889 C34.1119879,14.5533365 31.9683749,10.4825111 26.8787302,10.4825111 M29.4002721,17.995654 L22.3961905,17.995654 C22.7384429,15.7542571 23.8909751,13.5997175 26.4542404,13.6582254 C28.5313379,13.5997175 29.6463794,15.201146 29.4002721,17.995654" id="Fill-5" fill="#FFFFFF"></path>
                <g id="Group-9" transform="translate(0.000000, 7.328089)" fill="#FFFFFF">
                    <path d="M4.83900227,0.184692063 C4.90854119,0.184692063 5.01073318,0.26551746 5.02403628,0.331866667 L7.9670446,14.365327 C8.17203326,15.377454 8.27785336,16.4143111 8.34739229,17.011454 C8.43204837,16.151327 8.66243386,15.5354857 9.18911565,14.2157397 L14.8145125,0.328850794 C14.8411187,0.264914286 14.9572184,0.184692063 15.0243386,0.184692063 L19.4016629,0.184692063 C19.5631141,0.184692063 19.6386999,0.30472381 19.5752079,0.45672381 L10.8102797,21.1842159 C10.7842782,21.2463429 10.6675737,21.3253587 10.6016629,21.3253587 L4.93998488,21.3253587 C4.87226002,21.3253587 4.77006803,21.2451365 4.75555556,21.1812 L0.00695389267,0.453104762 C-0.0275132275,0.302914286 0.0692365835,0.184692063 0.228269085,0.184692063 L4.83900227,0.184692063 Z" id="Fill-7"></path>
                </g>
                <path d="M49.5981859,23.5021556 C49.7167045,23.5323143 49.7711262,23.6541556 49.7185185,23.7705683 C48.7643235,25.9172667 47.2187453,29.0025048 42.2355253,29.0025048 C36.4226757,29.0025048 34.9998488,24.2899016 35.3934996,19.800473 C35.8379441,14.7422508 38.409675,10.4826317 44.0060469,10.4826317 C48.5726379,10.4826317 50.1962207,14.0232667 50.2518519,15.8171079 C50.2548753,15.9051714 50.1684051,16.0173619 50.0807256,16.0408857 L46.0783069,17.0886 C45.9313681,17.1266 45.8243386,17.0409492 45.8346183,16.8931714 C45.9476946,15.2772667 45.2897959,13.8646317 43.6220711,13.8646317 C41.6187453,13.8646317 40.5526833,15.6144413 40.2134543,19.4801873 C39.8857143,23.2138381 40.256387,25.6211079 42.6497354,25.6211079 C44.462585,25.6211079 45.3708239,23.8899968 45.6169312,22.716219 C45.6441421,22.5877429 45.7662887,22.5093302 45.8884354,22.5406952 L49.5981859,23.5021556 Z" id="Fill-10" fill="#FFFFFF"></path>
                <path d="M62.1020106,15.4339714 C62.0929403,15.5437492 61.9877249,15.6402571 61.877672,15.6402571 L57.9980045,15.6402571 L57.3884807,22.5954635 C57.2282389,24.421273 57.2373091,25.3881619 59.038065,25.3881619 C59.581678,25.3881619 60.431867,25.3007016 61.0286924,25.0552095 C61.1943764,24.9864476 61.3153137,25.0714952 61.3001965,25.2446063 L61.0347392,28.2725429 C61.0292971,28.3292413 60.9452457,28.4414317 60.8896145,28.4637492 C60.3460015,28.6784794 58.9183371,29.0029873 57.4949055,29.0029873 C53.3915042,29.0029873 52.4524263,26.2338127 52.7160695,23.2360349 L53.3824339,15.6402571 L51.0791837,15.6402571 C50.9685261,15.6402571 50.8802419,15.5437492 50.8899169,15.4339714 L51.1505367,12.4645429 C51.1602116,12.3547651 51.2660317,12.2582571 51.3760847,12.2582571 L53.6787302,12.2582571 L54.0076795,8.50530476 C54.012517,8.44860635 54.0971731,8.33701905 54.1521995,8.31470159 L58.5077551,6.56790794 C58.6728345,6.5021619 58.7925624,6.58660635 58.7774452,6.75851111 L58.2949055,12.2582571 L62.1739683,12.2582571 C62.2840212,12.2582571 62.3723054,12.3547651 62.3626304,12.4645429 L62.1020106,15.4339714 Z" id="Fill-12" fill="#FFFFFF"></path>
                <path d="M100.021285,27.7974222 C97.6878005,22.4279619 96.4409373,16.5452 96.4651247,10.4217714 C97.1048828,9.95973968 97.7549206,9.51339048 98.4152381,9.08151746 C98.3958881,11.1841841 98.5289191,17.7835175 100.63867,25.1941206 C100.419773,26.0560571 100.21418,26.9240254 100.021285,27.7974222" id="Fill-14" fill="#FFFFFF"></path>
                <path d="M103.558458,34.3247365 C102.659289,32.9603556 101.83873,31.5483238 101.101013,30.0922603 C101.278186,29.5644825 101.468057,29.0041333 101.671837,28.4160381 C102.281361,30.1157841 103.003356,31.8300063 103.859592,33.5158794 C103.76768,33.756546 103.678791,33.9935937 103.59353,34.2270222 L103.558458,34.3247365 Z" id="Fill-16" fill="#FFFFFF"></path>
                <path d="M112.485865,36.4385016 C110.891308,34.1578984 109.487226,31.5570095 108.309902,28.7649143 C108.545125,28.3879302 108.788209,28.0049143 109.03613,27.617073 C109.866364,30.591327 111.014664,33.5390413 112.588057,36.256946 C112.724717,36.4927873 112.485865,36.4385016 112.485865,36.4385016" id="Fill-18" fill="#FFFFFF"></path>
                <path d="M104.471111,13.628127 C104.205049,10.9470159 104.160302,8.2864127 104.361663,5.73196825 C105.341859,5.26330159 106.337778,4.82539683 107.348209,4.41885714 C107.270809,5.14869841 107.161965,6.3532381 107.087589,7.90761905 C106.148511,9.77263492 105.275949,11.679873 104.471111,13.628127" id="Fill-20" fill="#FFFFFF"></path>
                <path d="M107.249463,26.0275873 C106.438579,23.739746 105.777052,21.359619 105.282419,18.9493333 C105.852638,17.5970159 106.456115,16.2320317 107.087407,14.8887619 C107.224067,17.7441905 107.551807,20.9271429 108.209705,24.171619 C107.880151,24.7965079 107.559667,25.4153651 107.249463,26.0275873" id="Fill-22" fill="#FFFFFF"></path>
                <path d="M109.189902,37.3594889 C107.270627,34.8991397 105.611973,32.1408222 104.250824,29.1925048 C104.467906,28.7274571 104.695268,28.2461238 104.931096,27.752727 C105.948178,30.9766952 107.351655,34.2085048 109.281814,37.1731079 C109.430567,37.4011079 109.189902,37.3594889 109.189902,37.3594889" id="Fill-24" fill="#FFFFFF"></path>
                <path d="M103.156886,26.6230413 C100.878428,20.7861206 99.7240816,14.365327 99.941164,8.11945397 C100.7587,7.62485079 101.588934,7.15377143 102.433076,6.70500952 C102.295813,9.10926349 102.092033,16.4390413 104.005865,24.4099937 C103.710174,25.1525016 103.427181,25.8913905 103.156886,26.6230413" id="Fill-26" fill="#FFFFFF"></path>
                <path d="M91.0968405,5.53859048 C92.210068,5.53859048 93.11226,6.43913016 93.11226,7.5495746 C93.11226,8.66001905 92.210068,9.56055873 91.0968405,9.56055873 C89.9830083,9.56055873 89.0808163,8.66001905 89.0808163,7.5495746 C89.0808163,6.43913016 89.9830083,5.53859048 91.0968405,5.53859048 L91.0968405,5.53859048 Z M91.0968405,9.11300317 C91.961542,9.11300317 92.6635828,8.41211429 92.6635828,7.5495746 C92.6635828,6.68703492 91.961542,5.98614603 91.0968405,5.98614603 C90.2315344,5.98614603 89.5294936,6.68703492 89.5294936,7.5495746 C89.5294936,8.41211429 90.2315344,9.11300317 91.0968405,9.11300317 L91.0968405,9.11300317 Z M90.9886017,7.72751111 L90.7074225,7.72751111 L90.7074225,8.66001905 L90.2587453,8.66001905 L90.2587453,6.4119873 L91.1125624,6.4119873 C91.6797581,6.4119873 91.9990325,6.58992381 91.9990325,7.08030476 C91.9990325,7.47960635 91.7390174,7.69493968 91.4155102,7.70579683 L92.0044747,8.66001905 L91.5394709,8.66001905 L90.9886017,7.72751111 Z M91.1071202,7.40360635 C91.3882993,7.40360635 91.5503553,7.30709841 91.5503553,7.08030476 C91.5503553,6.8704 91.3665306,6.78897143 91.1724263,6.78897143 L90.7074225,6.78897143 L90.7074225,7.40360635 L91.1071202,7.40360635 Z" id="Fill-28" fill="#FFFFFF"></path>
                <path d="M110.723144,16.1506032 C109.780438,17.7025714 108.867967,19.314254 108.00387,20.9180952 C107.821255,19.6405714 107.6852,18.388381 107.585427,17.1784127 C110.378473,11.410254 113.628662,5.84295238 116.682328,1.53146032 C118.065246,1.26365079 119.465094,1.05193651 120.877037,0.899333333 C119.29155,3.14434921 114.368193,10.1478095 110.723144,16.1506032" id="Fill-30" fill="#ABC240"></path>
                <path d="M102.212971,32.8347746 C101.393621,34.6949651 100.923175,35.8470286 100.923175,35.8470286 L100.842751,35.9127746 C100.785306,35.8976952 100.794981,35.8126476 100.794981,35.8126476 C100.949781,35.1799175 101.399667,33.329981 101.569584,32.6972508 C101.628239,32.4789016 101.688103,32.2599492 101.749781,32.0391873 C101.901557,32.3063937 102.055752,32.5717905 102.212971,32.8347746" id="Fill-32" fill="#ABC240"></path>
                <path d="M106.280393,24.2198127 C105.023855,26.7018762 103.922721,29.0427968 103.049554,30.9645111 C102.85424,30.511527 102.668602,30.0579397 102.490219,29.6049556 C103.327105,27.0318127 104.366561,24.3362254 105.542676,21.6249556 C105.767619,22.4977492 106.013726,23.3633048 106.280393,24.2198127" id="Fill-34" fill="#ABC240"></path>
                <path d="M107.146727,13.9516698 C105.914376,16.5109397 104.782404,19.1727492 103.783462,21.7012571 C103.538564,20.408654 103.346878,19.1468127 103.196916,17.9362413 C105.009766,12.7911619 107.291852,7.90243175 109.986939,3.30986032 C111.273711,2.87255873 112.580438,2.48532063 113.905306,2.15055873 C112.81808,3.91786032 109.947634,8.13224127 107.146727,13.9516698" id="Fill-36" fill="#ABC240"></path>
                <path d="M102.352351,25.4648254 C100.431867,30.7112381 99.2775208,34.6728889 99.2775208,34.6728889 L99.2031444,34.7446667 C99.1444898,34.7344127 99.1469085,34.6493651 99.1469085,34.6493651 C99.2454724,34.0051746 99.5320937,32.1232698 99.6457748,31.4784762 C100.151293,28.6164127 100.794679,25.8134603 101.568073,23.0744444 C101.808738,23.8796825 102.070567,24.6770794 102.352351,25.4648254" id="Fill-38" fill="#ABC240"></path>
                <g id="Group-42" transform="translate(105.820106, 0.089994)">
                    <mask id="mask-2" fill="white">
                        <use xlink:href="#path-1"></use>
                    </mask>
                    <g id="Clip-41"></g>
                    <path d="M8.76263039,18.5954508 C5.73375661,23.0299905 2.77200302,27.4048159 0.680997732,30.984054 C0.47600907,30.4846254 0.281904762,29.9827841 0.0974754346,29.4797365 C4.53526833,19.8663397 12.4494029,7.32995873 18.1280121,0.570180952 C19.3736659,0.511069841 20.62839,0.4978 21.889161,0.530974603 C19.1644444,4.11081587 12.5225699,13.0914825 8.76263039,18.5954508" id="Fill-40" fill="#ABC240" mask="url(#mask-2)"></path>
                </g>
                <path d="M105.613726,32.6149778 C103.981678,35.4866921 103.002691,37.4283111 103.002691,37.4283111 L102.91743,37.486819 C102.86059,37.4663111 102.878125,37.383073 102.878125,37.383073 C103.087347,36.7654222 103.696871,34.9625333 103.921209,34.3460889 C104.242902,33.4630413 104.616599,32.529327 105.033228,31.5564063 C105.22189,31.9128825 105.415389,32.2657397 105.613726,32.6149778" id="Fill-43" fill="#ABC240"></path>
            </g>
        </g>
    </g>
</svg>