<?xml version="1.0" encoding="UTF-8" standalone="no"?>
<svg width="81px" height="111px" viewBox="0 0 81 111" version="1.1" xmlns="http://www.w3.org/2000/svg" xmlns:xlink="http://www.w3.org/1999/xlink">
    <!-- Generator: Sketch 40.3 (33839) - http://www.bohemiancoding.com/sketch -->
    <title>Group 2</title>
    <desc>Created with Sketch.</desc>
    <defs>
        <path d="M10.275084,10.2133651 C16.8681375,3.62828983 25.6245791,-1.42108547e-14 34.9442055,-1.42108547e-14 C44.2530014,-1.42108547e-14 53.0202734,3.62828983 59.6024964,10.2133651 C71.8896738,22.4981046 73.4086483,45.6216831 62.7974874,59.7638904 L34.9442055,100 L7.04218632,59.7016138 C-3.51752981,45.6216831 -2.00938573,22.4981046 10.275084,10.2133651 L10.275084,10.2133651 Z" id="path-1"></path>
        <filter x="-50%" y="-50%" width="200%" height="200%" filterUnits="objectBoundingBox" id="filter-2">
            <feMorphology radius="0.5" operator="dilate" in="SourceAlpha" result="shadowSpreadOuter1"></feMorphology>
            <feOffset dx="0" dy="3" in="shadowSpreadOuter1" result="shadowOffsetOuter1"></feOffset>
            <feGaussianBlur stdDeviation="2.5" in="shadowOffsetOuter1" result="shadowBlurOuter1"></feGaussianBlur>
            <feComposite in="shadowBlurOuter1" in2="SourceAlpha" operator="out" result="shadowBlurOuter1"></feComposite>
            <feColorMatrix values="0 0 0 0 0.51372549   0 0 0 0 0.568627451   0 0 0 0 0.607843137  0 0 0 1 0" type="matrix" in="shadowBlurOuter1"></feColorMatrix>
        </filter>
    </defs>
    <g id="Page-1" stroke="none" stroke-width="1" fill="none" fill-rule="evenodd">
        <g id="Group-2" transform="translate(6.000000, 3.000000)">
            <g id="Stroke-567">
                <use fill="black" fill-opacity="1" filter="url(#filter-2)" xlink:href="#path-1"></use>
                <use stroke="#062438" stroke-width="1" fill="#072438" fill-rule="evenodd" xlink:href="#path-1"></use>
            </g>
            <path d="M37.8384854,20.2850567 C38.0244854,26.3210567 33.8024854,30.3160567 29.9834854,33.9320567 C28.2094854,35.6120567 26.3754854,37.3480567 24.9374854,39.2630567 C22.7044854,42.2370567 21.8904854,45.2200567 22.4494854,48.3790567 C23.4554854,54.0710567 28.7704854,59.1070567 33.1854854,62.4010567 C33.1294854,55.8080567 37.1334854,52.0070567 40.7304854,48.5940567 C44.0194854,45.4710567 47.1274854,42.5220567 47.3964854,37.6080567 C47.6754854,32.4630567 44.5414854,26.7690567 37.8384854,20.2850567 M35.2234854,67.4610567 C34.9124854,67.4610567 34.6004854,67.3730567 34.3284854,67.1950567 C28.2014854,63.2070567 20.6074854,56.8050567 19.2184854,48.9500567 C18.5034854,44.9040567 19.5454854,40.9820567 22.3134854,37.2920567 C23.9174854,35.1550567 25.8544854,33.3220567 27.7274854,31.5480567 C32.5834854,26.9520567 36.4194854,23.3210567 33.6264854,16.2430567 C33.3494854,15.5430567 33.5844854,14.7430567 34.1984854,14.3060567 C34.8084854,13.8690567 35.6434854,13.9020567 36.2154854,14.3920567 C46.3314854,23.0180567 51.0594854,30.6720567 50.6714854,37.7870567 C50.3324854,44.0030567 46.4304854,47.7060567 42.9894854,50.9730567 C38.8624854,54.8920567 35.2974854,58.2740567 36.8294854,65.4790567 C36.9664854,66.1280567 36.6994854,66.7980567 36.1534854,67.1730567 C35.8724854,67.3650567 35.5494854,67.4610567 35.2234854,67.4610567" id="Fill-166" fill="#AAC341"></path>
        </g>
    </g>
</svg>