<?xml version="1.0" encoding="UTF-8" standalone="no"?>
<svg width="53px" height="71px" viewBox="0 0 53 71" version="1.1" xmlns="http://www.w3.org/2000/svg" xmlns:xlink="http://www.w3.org/1999/xlink">
    <!-- Generator: Sketch 40.3 (33839) - http://www.bohemiancoding.com/sketch -->
    <title>Group 3</title>
    <desc>Created with Sketch.</desc>
    <defs>
        <path d="M6.16505041,6.12801906 C10.1208825,2.1769739 15.3747474,-7.10542736e-15 20.9665233,-7.10542736e-15 C26.5518008,-7.10542736e-15 31.812164,2.1769739 35.7614978,6.12801906 C43.1338043,13.4988628 44.045189,27.3730099 37.6784925,35.8583342 L20.9665233,60 L4.22531179,35.8209683 C-2.11051788,27.3730099 -1.20563144,13.4988628 6.16505041,6.12801906 L6.16505041,6.12801906 Z" id="path-1"></path>
        <filter x="-50%" y="-50%" width="200%" height="200%" filterUnits="objectBoundingBox" id="filter-2">
            <feMorphology radius="0.5" operator="dilate" in="SourceAlpha" result="shadowSpreadOuter1"></feMorphology>
            <feOffset dx="0" dy="3" in="shadowSpreadOuter1" result="shadowOffsetOuter1"></feOffset>
            <feGaussianBlur stdDeviation="2.5" in="shadowOffsetOuter1" result="shadowBlurOuter1"></feGaussianBlur>
            <feComposite in="shadowBlurOuter1" in2="SourceAlpha" operator="out" result="shadowBlurOuter1"></feComposite>
            <feColorMatrix values="0 0 0 0 0.51372549   0 0 0 0 0.568627451   0 0 0 0 0.607843137  0 0 0 1 0" type="matrix" in="shadowBlurOuter1"></feColorMatrix>
        </filter>
    </defs>
    <g id="Page-1" stroke="none" stroke-width="1" fill="none" fill-rule="evenodd">
        <g id="Group-3" transform="translate(6.000000, 3.000000)">
            <g id="Stroke-567-Copy">
                <use fill="black" fill-opacity="1" filter="url(#filter-2)" xlink:href="#path-1"></use>
                <use stroke="#062438" stroke-width="1" fill="#072438" fill-rule="evenodd" xlink:href="#path-1"></use>
            </g>
            <path d="M19.3914054,39.5487045 C19.2072054,39.5487045 19.0224054,39.4941045 18.8604054,39.3801045 C18.4464054,39.0861045 18.3480054,38.5107045 18.6414054,38.0967045 L27.9762054,24.9237045 C23.7282054,24.9363045 13.3710054,24.9663045 13.3710054,24.9663045 L13.3680054,24.9663045 C13.0260054,24.9663045 12.7122054,24.7767045 12.5532054,24.4731045 C12.3942054,24.1689045 12.4170054,23.8017045 12.6138054,23.5203045 L22.4544054,9.39450452 C22.7436054,8.97690452 23.3178054,8.87490452 23.7342054,9.16530452 C24.1512054,9.45570452 24.2538054,10.0287045 23.9634054,10.4457045 L15.1338054,23.1207045 C19.3386054,23.1093045 29.5968054,23.0793045 29.7588054,23.0793045 C30.1026054,23.0793045 30.4182054,23.2719045 30.5760054,23.5773045 C30.7332054,23.8827045 30.7080054,24.2511045 30.5094054,24.5313045 L20.1432054,39.1605045 C19.9638054,39.4137045 19.6800054,39.5487045 19.3914054,39.5487045 L19.3914054,39.5487045 Z" id="Fill-164" fill="#AAC341"></path>
        </g>
    </g>
</svg>