<?xml version="1.0" encoding="UTF-8" standalone="no"?>
<svg width="53px" height="71px" viewBox="0 0 53 71" version="1.1" xmlns="http://www.w3.org/2000/svg" xmlns:xlink="http://www.w3.org/1999/xlink">
    <!-- Generator: Sketch 40.3 (33839) - http://www.bohemiancoding.com/sketch -->
    <title>Group 4</title>
    <desc>Created with Sketch.</desc>
    <defs>
        <path d="M6.16505041,6.12801906 C10.1208825,2.1769739 15.3747474,-7.10542736e-15 20.9665233,-7.10542736e-15 C26.5518008,-7.10542736e-15 31.812164,2.1769739 35.7614978,6.12801906 C43.1338043,13.4988628 44.045189,27.3730099 37.6784925,35.8583342 L20.9665233,60 L4.22531179,35.8209683 C-2.11051788,27.3730099 -1.20563144,13.4988628 6.16505041,6.12801906 L6.16505041,6.12801906 Z" id="path-1"></path>
        <filter x="-50%" y="-50%" width="200%" height="200%" filterUnits="objectBoundingBox" id="filter-2">
            <feMorphology radius="0.5" operator="dilate" in="SourceAlpha" result="shadowSpreadOuter1"></feMorphology>
            <feOffset dx="0" dy="3" in="shadowSpreadOuter1" result="shadowOffsetOuter1"></feOffset>
            <feGaussianBlur stdDeviation="2.5" in="shadowOffsetOuter1" result="shadowBlurOuter1"></feGaussianBlur>
            <feComposite in="shadowBlurOuter1" in2="SourceAlpha" operator="out" result="shadowBlurOuter1"></feComposite>
            <feColorMatrix values="0 0 0 0 0.51372549   0 0 0 0 0.568627451   0 0 0 0 0.607843137  0 0 0 1 0" type="matrix" in="shadowBlurOuter1"></feColorMatrix>
        </filter>
    </defs>
    <g id="Page-1" stroke="none" stroke-width="1" fill="none" fill-rule="evenodd">
        <g id="Group-4" transform="translate(6.000000, 3.000000)">
            <g id="Stroke-567-Copy-2">
                <use fill="black" fill-opacity="1" filter="url(#filter-2)" xlink:href="#path-1"></use>
                <use stroke="#062438" stroke-width="1" fill="#072438" fill-rule="evenodd" xlink:href="#path-1"></use>
            </g>
            <g id="Group" transform="translate(8.926598, 10.200000)" fill="#AAC341">
                <path d="M20.3847676,19.0247677 C19.830588,19.0247677 19.3815454,18.5757251 19.3815454,18.0215455 L19.3815454,7.07748203 C19.3815454,6.52330248 19.830588,6.07425984 20.3847676,6.07425984 C20.9389471,6.07425984 21.3879898,6.52330248 21.3879898,7.07748203 L21.3879898,18.0215455 C21.3879898,18.5757251 20.9389471,19.0247677 20.3847676,19.0247677" id="Fill-624"></path>
                <path d="M20.3860941,0.346558735 C19.135751,0.346558735 17.9704018,1.01864883 17.3459672,2.10047805 C16.3786095,3.77579034 16.9548973,5.92520126 18.6297183,6.892559 C19.1617896,7.200109 19.7680463,7.36272729 20.3811811,7.36272729 C21.6315242,7.36272729 22.7963821,6.6906372 23.4213079,5.60880797 C23.8900023,4.79719041 24.0142997,3.85194089 23.7720918,2.94697748 C23.5293926,2.04201407 22.9491745,1.28493013 22.1370656,0.816727022 C21.604503,0.509177024 20.9992289,0.346558735 20.3860941,0.346558735 M20.3860941,2.0233449 C20.7049438,2.0233449 21.0203545,2.10833875 21.2989182,2.26899187 C21.7229048,2.51365624 22.0255419,2.90816526 22.1522957,3.38128131 C22.2785583,3.85341478 22.2137075,4.34667388 21.9690431,4.77016924 C21.6428239,5.33515726 21.034602,5.68594112 20.3811811,5.68594112 C20.0623314,5.68594112 19.7464294,5.60094727 19.468357,5.44029416 C18.5938538,4.935244 18.2931819,3.81312867 18.7977408,2.93911678 C19.12396,2.37412877 19.7321818,2.0233449 20.3860941,2.0233449" id="Fill-625"></path>
                <path d="M18.4083412,19.841593 C18.1518858,19.841593 17.8949391,19.7438255 17.6989128,19.5477992 L5.54626626,7.39859174 C5.154705,7.00703048 5.1542137,6.37178744 5.54626626,5.97973489 C5.93782751,5.58817363 6.57307056,5.58817363 6.96512311,5.97973489 L19.1177697,18.1289424 C19.5093309,18.5205036 19.5093309,19.1557467 19.1177697,19.5477992 C18.9217434,19.7438255 18.6652879,19.841593 18.4083412,19.841593" id="Fill-626"></path>
                <path d="M1.61512878,2.04663224 C0.730799714,2.9309613 0.382472321,4.22994244 0.70525243,5.43656032 C1.20637223,7.30495112 3.1337183,8.41773186 5.00161781,7.91710335 C5.59559217,7.75841541 6.13896325,7.44496989 6.57277578,7.01115735 C7.45710485,6.12682829 7.80543224,4.82833844 7.48216084,3.62122927 C7.23995293,2.71626586 6.65924351,1.95967321 5.84811724,1.4914701 C5.03649968,1.02277569 4.09075887,0.897987037 3.18579546,1.14068624 C2.5918211,1.29986547 2.04845002,1.61331099 1.61512878,2.04663224 M2.80111232,3.23261577 C3.02612493,3.00711186 3.30960153,2.84351098 3.62009929,2.76048231 C4.09272405,2.63372848 4.58598315,2.69857927 5.00947851,2.94373494 C5.43346517,3.18839932 5.73610223,3.58290834 5.86236477,4.0555331 C6.03136988,4.68537191 5.84909983,5.36335753 5.38728354,5.82566511 C5.16177963,6.05116902 4.87830303,6.21427861 4.56780527,6.29730728 C3.59258683,6.55867565 2.58641687,5.97796623 2.3250485,5.00274779 C2.15653469,4.37290897 2.33880473,3.69443206 2.80111232,3.23261577" id="Fill-627"></path>
                <path d="M17.450662,21.9181942 L6.50659849,21.9181942 C5.95291024,21.9181942 5.5033763,21.4691515 5.5033763,20.914972 C5.5033763,20.3607924 5.95291024,19.9117498 6.50659849,19.9117498 L17.450662,19.9117498 C18.0048415,19.9117498 18.4538842,20.3607924 18.4538842,20.914972 C18.4538842,21.4691515 18.0048415,21.9181942 17.450662,21.9181942" id="Fill-628"></path>
                <path d="M0.0116927954,20.9136455 C0.0116927954,22.1639885 0.683782886,23.3293377 1.76561211,23.9537723 C3.4409244,24.92113 5.59033532,24.3448422 6.55769306,22.6700213 C6.86524306,22.1379499 7.02786135,21.5316932 7.02786135,20.9185584 C7.02786135,19.6677241 6.35577126,18.5033575 5.27394203,17.8784316 C4.46232447,17.4097372 3.51707495,17.2854398 2.61211154,17.5276477 C1.70714813,17.7703469 0.950064193,18.3505651 0.481861082,19.1626739 C0.174311085,19.6952365 0.0116927954,20.3005107 0.0116927954,20.9136455 M1.68847896,20.9136455 C1.68847896,20.5947957 1.77347281,20.279385 1.93412593,20.0008214 C2.1787903,19.5768347 2.57329932,19.2741976 3.04641537,19.1474438 C3.51854884,19.0211813 4.01180794,19.0860321 4.4353033,19.3306964 C5.00029132,19.6569156 5.35107518,20.2651375 5.35107518,20.9185584 C5.35107518,21.2374082 5.26608133,21.5533102 5.10542822,21.8313825 C4.60037806,22.7058857 3.47826273,23.0065576 2.60425084,22.5019987 C2.03926283,22.1757796 1.68847896,21.5675577 1.68847896,20.9136455" id="Fill-629"></path>
                <path d="M20.3860941,17.4068877 C19.135751,17.4068877 17.9704018,18.0789778 17.3459672,19.160807 C16.3786095,20.8361193 16.9548973,22.9855302 18.6297183,23.952888 C19.1617896,24.260438 19.7680463,24.4230562 20.3811811,24.4230562 C21.6315242,24.4230562 22.7963821,23.7509661 23.4213079,22.6691369 C23.8900023,21.8575194 24.0142997,20.9122698 23.7720918,20.0073064 C23.5293926,19.102343 22.9491745,18.3452591 22.1370656,17.877056 C21.604503,17.569506 20.9992289,17.4068877 20.3860941,17.4068877 M20.3860941,19.0836739 C20.7049438,19.0836739 21.0203545,19.1686677 21.2989182,19.3293208 C21.7229048,19.5739852 22.0255419,19.9684942 22.1522957,20.4416103 C22.2785583,20.9137437 22.2137075,21.4070028 21.9690431,21.8304982 C21.6428239,22.3954862 21.034602,22.7462701 20.3811811,22.7462701 C20.0623314,22.7462701 19.7464294,22.6612762 19.468357,22.5006231 C18.5938538,21.995573 18.2931819,20.8734576 18.7977408,19.9994457 C19.12396,19.4344577 19.7321818,19.0836739 20.3860941,19.0836739" id="Fill-630"></path>
            </g>
        </g>
    </g>
</svg>