<?xml version="1.0" encoding="UTF-8" standalone="no"?>
<svg width="106px" height="105px" viewBox="0 0 106 105" version="1.1" xmlns="http://www.w3.org/2000/svg" xmlns:xlink="http://www.w3.org/1999/xlink">
    <!-- Generator: Sketch 40.3 (33839) - http://www.bohemiancoding.com/sketch -->
    <title>Group</title>
    <desc>Created with Sketch.</desc>
    <defs>
        <filter x="-50%" y="-50%" width="200%" height="200%" filterUnits="objectBoundingBox" id="filter-1">
            <feOffset dx="0" dy="2" in="SourceAlpha" result="shadowOffsetOuter1"></feOffset>
            <feGaussianBlur stdDeviation="2" in="shadowOffsetOuter1" result="shadowBlurOuter1"></feGaussianBlur>
            <feColorMatrix values="0 0 0 0 0   0 0 0 0 0   0 0 0 0 0  0 0 0 0.5 0" type="matrix" in="shadowBlurOuter1" result="shadowMatrixOuter1"></feColorMatrix>
            <feMerge>
                <feMergeNode in="shadowMatrixOuter1"></feMergeNode>
                <feMergeNode in="SourceGraphic"></feMergeNode>
            </feMerge>
        </filter>
    </defs>
    <g id="Page-1" stroke="none" stroke-width="1" fill="none" fill-rule="evenodd">
        <g id="Group" filter="url(#filter-1)" transform="translate(4.000000, 2.000000)">
            <path d="M49.0795,0.3099 C22.3665,0.3099 0.7125,21.9649 0.7125,48.6769 C0.7125,75.3899 22.3665,97.0449 49.0795,97.0449 C75.7925,97.0449 97.4465,75.3899 97.4465,48.6769 C97.4465,21.9649 75.7925,0.3099 49.0795,0.3099" id="Fill-308" fill="#062338"></path>
            <path d="M51.1649,50.5103 L63.9229,37.7523 C64.4929,37.1823 64.4929,36.2583 63.9229,35.6883 C63.3499,35.1153 62.4189,35.1153 61.8459,35.6883 L49.1009,48.4433 L36.3429,35.6883 C35.7729,35.1153 34.8489,35.1153 34.2789,35.6883 C33.7059,36.2583 33.7059,37.1823 34.2789,37.7623 L47.0339,50.5103 L34.2789,63.2563 C33.7059,63.8283 33.7059,64.7593 34.2789,65.3323 C34.5639,65.6173 34.9349,65.7613 35.3169,65.7613 C35.6879,65.7613 36.0579,65.6173 36.3429,65.3323 L49.1009,52.5743 L61.8459,65.3323 C62.1409,65.6173 62.5139,65.7613 62.8839,65.7613 C63.2549,65.7613 63.6379,65.6173 63.9229,65.3323 C64.4929,64.7593 64.4929,63.8283 63.9229,63.2563 L51.1649,50.5103 L51.1649,50.5103 Z" id="Stroke-551" stroke="#FFFFFF" fill="#FFFFFF"></path>
        </g>
    </g>
</svg>