<?xml version="1.0" encoding="UTF-8" standalone="no"?>
<svg width="28px" height="28px" viewBox="0 0 28 28" version="1.1" xmlns="http://www.w3.org/2000/svg" xmlns:xlink="http://www.w3.org/1999/xlink">
    <!-- Generator: Sketch 41 (35326) - http://www.bohemiancoding.com/sketch -->
    <title>expand</title>
    <desc>Created with Sketch.</desc>
    <defs></defs>
    <g id="Page-1" stroke="none" stroke-width="1" fill="none" fill-rule="evenodd">
        <g id="expand" transform="translate(14.000000, 14.000000) rotate(180.000000) translate(-14.000000, -14.000000) " fill="#072438">
            <g id="Symbols">
                <g id="ic/expand/dark">
                    <g id="ic_down">
                        <path d="M14,1.04832 C21.14112,1.04832 26.95168,6.85888 26.95168,14 C26.95168,21.14112 21.14112,26.95168 14,26.95168 C6.85888,26.95168 1.04832,21.14112 1.04832,14 C1.04832,6.85888 6.85888,1.04832 14,1.04832 M14,0 C6.26752,0 0,6.26752 0,14 C0,21.73248 6.26752,28 14,28 C21.73248,28 28,21.73248 28,14 C28,6.26752 21.73248,0 14,0" id="Fill-59"></path>
                        <path d="M14.5994782,17.2695444 C14.810403,17.4959151 15.1861328,17.4974949 15.400231,17.2688673 L20.8330795,11.4732814 C20.9407633,11.358629 21,11.2067373 21,11.0451406 C21,10.883544 20.9407633,10.7318779 20.8335027,10.617677 C20.6185582,10.3883723 20.2451556,10.388598 20.0308458,10.6172256 L14.9999604,15.9839937 L9.96822869,10.6163228 C9.85779462,10.4987364 9.71245322,10.4398304 9.56732339,10.4398304 C9.42177044,10.4398304 9.27642905,10.4987364 9.16557186,10.6165485 C8.94470372,10.8521726 8.94470372,11.2367545 9.16620654,11.4735071 L14.5994782,17.2695444 L14.5994782,17.2695444 Z" id="Fill-61" transform="translate(15.000000, 13.939830) rotate(-91.000000) translate(-15.000000, -13.939830) "></path>
                    </g>
                </g>
            </g>
        </g>
    </g>
</svg>