<?xml version="1.0" encoding="UTF-8" standalone="no"?>
<svg width="178px" height="184px" viewBox="0 0 178 184" version="1.1" xmlns="http://www.w3.org/2000/svg" xmlns:xlink="http://www.w3.org/1999/xlink">
    <!-- Generator: Sketch 40.1 (33804) - http://www.bohemiancoding.com/sketch -->
    <title>Combined Shape</title>
    <desc>Created with Sketch.</desc>
    <defs></defs>
    <g id="Page-1" stroke="none" stroke-width="1" fill="none" fill-rule="evenodd">
        <path d="M140.12975,112 C134.591435,148.239445 103.28763,176 65.5,176 C23.8025014,176 -10,142.197499 -10,100.5 C-10,58.8025014 23.8025014,25 65.5,25 C105.686724,25 138.540186,56.3974254 140.86811,96 L201.999949,96 C206.418255,96 210,99.5907123 210,104 C210,108.418278 206.420214,112 201.999949,112 L140.12975,112 Z M65.5,163 C100.017797,163 128,135.017797 128,100.5 C128,65.9822031 100.017797,38 65.5,38 C30.9822031,38 3,65.9822031 3,100.5 C3,135.017797 30.9822031,163 65.5,163 Z M140.12975,112 C140.702797,108.250322 141,104.409868 141,100.5 C141,98.9892252 140.955626,97.4888144 140.86811,96 L138.000051,96 C133.579786,96 130,99.581722 130,104 C130,108.409288 133.581745,112 138.000051,112 L140.12975,112 Z" id="Combined-Shape" fill="#FFFFFF" transform="translate(100.000000, 100.500000) rotate(45.000000) translate(-100.000000, -100.500000) "></path>
    </g>
</svg>